<mxfile host="app.diagrams.net" agent="Mozilla/5.0 (Windows NT 10.0; Win64; x64) AppleWebKit/537.36 (KHTML, like Gecko) Chrome/138.0.0.0 Safari/537.36" version="27.2.0">
  <diagram id="LJsjI4jCTa57IrYXulO4" name="Page-1">
    <mxGraphModel dx="872" dy="473" grid="1" gridSize="10" guides="1" tooltips="1" connect="1" arrows="1" fold="1" page="1" pageScale="1" pageWidth="850" pageHeight="1100" math="0" shadow="0">
      <root>
        <mxCell id="VenPGJtxrkUvdA_JquzI-0" />
        <mxCell id="VenPGJtxrkUvdA_JquzI-1" parent="VenPGJtxrkUvdA_JquzI-0" />
        <mxCell id="Si_MI3wo0mt31UTjFTAA-0" value="" style="shape=actor;whiteSpace=wrap;html=1;" parent="VenPGJtxrkUvdA_JquzI-1" vertex="1">
          <mxGeometry x="290" y="100" width="40" height="60" as="geometry" />
        </mxCell>
        <mxCell id="Si_MI3wo0mt31UTjFTAA-2" value="" style="shape=singleArrow;direction=south;whiteSpace=wrap;html=1;" parent="VenPGJtxrkUvdA_JquzI-1" vertex="1">
          <mxGeometry x="300" y="160" width="20" height="50" as="geometry" />
        </mxCell>
        <mxCell id="Si_MI3wo0mt31UTjFTAA-3" value="GitHub" style="ellipse;whiteSpace=wrap;html=1;align=center;newEdgeStyle={&quot;edgeStyle&quot;:&quot;entityRelationEdgeStyle&quot;,&quot;startArrow&quot;:&quot;none&quot;,&quot;endArrow&quot;:&quot;none&quot;,&quot;segment&quot;:10,&quot;curved&quot;:1,&quot;sourcePerimeterSpacing&quot;:0,&quot;targetPerimeterSpacing&quot;:0};treeFolding=1;treeMoving=1;" parent="VenPGJtxrkUvdA_JquzI-1" vertex="1">
          <mxGeometry x="270" y="210" width="100" height="40" as="geometry" />
        </mxCell>
        <mxCell id="Si_MI3wo0mt31UTjFTAA-6" style="edgeStyle=orthogonalEdgeStyle;rounded=0;orthogonalLoop=1;jettySize=auto;html=1;entryX=0.5;entryY=0;entryDx=0;entryDy=0;" parent="VenPGJtxrkUvdA_JquzI-1" edge="1">
          <mxGeometry relative="1" as="geometry">
            <mxPoint x="360" y="302" as="sourcePoint" />
            <mxPoint x="360" y="302" as="targetPoint" />
          </mxGeometry>
        </mxCell>
        <mxCell id="Si_MI3wo0mt31UTjFTAA-23" style="edgeStyle=entityRelationEdgeStyle;rounded=0;orthogonalLoop=1;jettySize=auto;html=1;startArrow=none;endArrow=none;segment=10;curved=1;sourcePerimeterSpacing=0;targetPerimeterSpacing=0;exitX=1;exitY=0.5;exitDx=0;exitDy=0;entryX=0;entryY=0.5;entryDx=0;entryDy=0;" parent="VenPGJtxrkUvdA_JquzI-1" source="Si_MI3wo0mt31UTjFTAA-24" target="Si_MI3wo0mt31UTjFTAA-18" edge="1">
          <mxGeometry relative="1" as="geometry" />
        </mxCell>
        <mxCell id="Si_MI3wo0mt31UTjFTAA-7" value="Jenkins" style="ellipse;whiteSpace=wrap;html=1;align=center;newEdgeStyle={&quot;edgeStyle&quot;:&quot;entityRelationEdgeStyle&quot;,&quot;startArrow&quot;:&quot;none&quot;,&quot;endArrow&quot;:&quot;none&quot;,&quot;segment&quot;:10,&quot;curved&quot;:1,&quot;sourcePerimeterSpacing&quot;:0,&quot;targetPerimeterSpacing&quot;:0};treeFolding=1;treeMoving=1;" parent="VenPGJtxrkUvdA_JquzI-1" vertex="1">
          <mxGeometry x="270" y="290" width="100" height="40" as="geometry" />
        </mxCell>
        <mxCell id="Si_MI3wo0mt31UTjFTAA-8" value="" style="shape=singleArrow;direction=south;whiteSpace=wrap;html=1;" parent="VenPGJtxrkUvdA_JquzI-1" vertex="1">
          <mxGeometry x="300" y="250" width="20" height="40" as="geometry" />
        </mxCell>
        <mxCell id="Si_MI3wo0mt31UTjFTAA-14" value="Developer" style="text;html=1;align=center;verticalAlign=middle;whiteSpace=wrap;rounded=0;" parent="VenPGJtxrkUvdA_JquzI-1" vertex="1">
          <mxGeometry x="285" y="70" width="50" height="30" as="geometry" />
        </mxCell>
        <mxCell id="Si_MI3wo0mt31UTjFTAA-18" value="" style="shape=hexagon;perimeter=hexagonPerimeter2;whiteSpace=wrap;html=1;fixedSize=1;" parent="VenPGJtxrkUvdA_JquzI-1" vertex="1">
          <mxGeometry x="330" y="350" width="80" height="60" as="geometry" />
        </mxCell>
        <mxCell id="Si_MI3wo0mt31UTjFTAA-56" style="edgeStyle=orthogonalEdgeStyle;rounded=0;orthogonalLoop=1;jettySize=auto;html=1;exitX=1;exitY=0.75;exitDx=0;exitDy=0;entryX=0.5;entryY=1;entryDx=0;entryDy=0;" parent="VenPGJtxrkUvdA_JquzI-1" source="Si_MI3wo0mt31UTjFTAA-24" target="Si_MI3wo0mt31UTjFTAA-27" edge="1">
          <mxGeometry relative="1" as="geometry" />
        </mxCell>
        <mxCell id="Si_MI3wo0mt31UTjFTAA-25" value="code" style="text;html=1;align=center;verticalAlign=middle;whiteSpace=wrap;rounded=0;" parent="VenPGJtxrkUvdA_JquzI-1" vertex="1">
          <mxGeometry x="407.5" y="365" width="35" height="20" as="geometry" />
        </mxCell>
        <mxCell id="Si_MI3wo0mt31UTjFTAA-44" style="edgeStyle=orthogonalEdgeStyle;rounded=0;orthogonalLoop=1;jettySize=auto;html=1;exitX=1;exitY=0.5;exitDx=0;exitDy=0;entryX=0;entryY=0.5;entryDx=0;entryDy=0;" parent="VenPGJtxrkUvdA_JquzI-1" source="Si_MI3wo0mt31UTjFTAA-27" target="Si_MI3wo0mt31UTjFTAA-39" edge="1">
          <mxGeometry relative="1" as="geometry">
            <Array as="points">
              <mxPoint x="560" y="450" />
              <mxPoint x="540" y="450" />
              <mxPoint x="540" y="515" />
            </Array>
          </mxGeometry>
        </mxCell>
        <mxCell id="Si_MI3wo0mt31UTjFTAA-27" value="" style="shape=hexagon;perimeter=hexagonPerimeter2;whiteSpace=wrap;html=1;fixedSize=1;direction=south;" parent="VenPGJtxrkUvdA_JquzI-1" vertex="1">
          <mxGeometry x="530" y="345" width="60" height="65" as="geometry" />
        </mxCell>
        <mxCell id="Si_MI3wo0mt31UTjFTAA-28" value="sonarQube" style="text;html=1;align=center;verticalAlign=middle;whiteSpace=wrap;rounded=0;" parent="VenPGJtxrkUvdA_JquzI-1" vertex="1">
          <mxGeometry x="540" y="370" width="40" height="30" as="geometry" />
        </mxCell>
        <mxCell id="Si_MI3wo0mt31UTjFTAA-37" value="code Quality check" style="text;html=1;align=center;verticalAlign=middle;whiteSpace=wrap;rounded=0;" parent="VenPGJtxrkUvdA_JquzI-1" vertex="1">
          <mxGeometry x="525" y="315" width="70" height="30" as="geometry" />
        </mxCell>
        <mxCell id="Si_MI3wo0mt31UTjFTAA-96" style="edgeStyle=orthogonalEdgeStyle;rounded=0;orthogonalLoop=1;jettySize=auto;html=1;exitX=1;exitY=1;exitDx=0;exitDy=0;" parent="VenPGJtxrkUvdA_JquzI-1" source="Si_MI3wo0mt31UTjFTAA-39" edge="1">
          <mxGeometry relative="1" as="geometry">
            <mxPoint x="640" y="540" as="targetPoint" />
          </mxGeometry>
        </mxCell>
        <mxCell id="Si_MI3wo0mt31UTjFTAA-39" value="" style="ellipse;whiteSpace=wrap;html=1;" parent="VenPGJtxrkUvdA_JquzI-1" vertex="1">
          <mxGeometry x="500" y="490" width="70" height="50" as="geometry" />
        </mxCell>
        <mxCell id="Si_MI3wo0mt31UTjFTAA-81" style="edgeStyle=orthogonalEdgeStyle;rounded=0;orthogonalLoop=1;jettySize=auto;html=1;exitX=1;exitY=0;exitDx=0;exitDy=0;" parent="VenPGJtxrkUvdA_JquzI-1" source="Si_MI3wo0mt31UTjFTAA-39" target="Si_MI3wo0mt31UTjFTAA-70" edge="1">
          <mxGeometry relative="1" as="geometry">
            <mxPoint x="610" y="480" as="targetPoint" />
            <mxPoint x="600" y="500" as="sourcePoint" />
            <Array as="points">
              <mxPoint x="560" y="500" />
              <mxPoint x="610" y="500" />
            </Array>
          </mxGeometry>
        </mxCell>
        <mxCell id="Si_MI3wo0mt31UTjFTAA-43" value="Docker" style="text;html=1;align=center;verticalAlign=middle;whiteSpace=wrap;rounded=0;" parent="VenPGJtxrkUvdA_JquzI-1" vertex="1">
          <mxGeometry x="507.5" y="500" width="60" height="30" as="geometry" />
        </mxCell>
        <mxCell id="Si_MI3wo0mt31UTjFTAA-45" value="code" style="text;html=1;align=center;verticalAlign=middle;whiteSpace=wrap;rounded=0;" parent="VenPGJtxrkUvdA_JquzI-1" vertex="1">
          <mxGeometry x="507.5" y="450" width="35" height="25" as="geometry" />
        </mxCell>
        <mxCell id="Si_MI3wo0mt31UTjFTAA-47" value="Build Image" style="text;html=1;align=center;verticalAlign=middle;whiteSpace=wrap;rounded=0;" parent="VenPGJtxrkUvdA_JquzI-1" vertex="1">
          <mxGeometry x="447.5" y="500" width="60" height="30" as="geometry" />
        </mxCell>
        <mxCell id="Si_MI3wo0mt31UTjFTAA-70" value="Docker registry" style="rounded=1;whiteSpace=wrap;html=1;" parent="VenPGJtxrkUvdA_JquzI-1" vertex="1">
          <mxGeometry x="595" y="410" width="90" height="30" as="geometry" />
        </mxCell>
        <mxCell id="Si_MI3wo0mt31UTjFTAA-82" value="Scanned docker image" style="text;html=1;align=center;verticalAlign=middle;whiteSpace=wrap;rounded=0;" parent="VenPGJtxrkUvdA_JquzI-1" vertex="1">
          <mxGeometry x="610" y="447.5" width="60" height="30" as="geometry" />
        </mxCell>
        <mxCell id="Si_MI3wo0mt31UTjFTAA-88" value="" style="edgeStyle=entityRelationEdgeStyle;rounded=0;orthogonalLoop=1;jettySize=auto;html=1;startArrow=none;endArrow=none;segment=10;curved=1;sourcePerimeterSpacing=0;targetPerimeterSpacing=0;exitX=1;exitY=0.5;exitDx=0;exitDy=0;" parent="VenPGJtxrkUvdA_JquzI-1" source="Si_MI3wo0mt31UTjFTAA-7" edge="1">
          <mxGeometry relative="1" as="geometry">
            <mxPoint x="370" y="310" as="sourcePoint" />
            <mxPoint x="360" y="350" as="targetPoint" />
          </mxGeometry>
        </mxCell>
        <mxCell id="Si_MI3wo0mt31UTjFTAA-24" value="build tool" style="text;html=1;align=center;verticalAlign=middle;whiteSpace=wrap;rounded=0;" parent="VenPGJtxrkUvdA_JquzI-1" vertex="1">
          <mxGeometry x="340" y="365" width="70" height="30" as="geometry" />
        </mxCell>
        <mxCell id="Si_MI3wo0mt31UTjFTAA-92" value="create container" style="text;html=1;align=center;verticalAlign=middle;whiteSpace=wrap;rounded=0;" parent="VenPGJtxrkUvdA_JquzI-1" vertex="1">
          <mxGeometry x="567.5" y="500" width="60" height="30" as="geometry" />
        </mxCell>
        <mxCell id="Si_MI3wo0mt31UTjFTAA-97" value="" style="rounded=1;whiteSpace=wrap;html=1;" parent="VenPGJtxrkUvdA_JquzI-1" vertex="1">
          <mxGeometry x="640" y="510" width="120" height="50" as="geometry" />
        </mxCell>
        <mxCell id="Si_MI3wo0mt31UTjFTAA-98" value="container Registry" style="text;html=1;align=center;verticalAlign=middle;whiteSpace=wrap;rounded=0;" parent="VenPGJtxrkUvdA_JquzI-1" vertex="1">
          <mxGeometry x="650" y="520" width="60" height="30" as="geometry" />
        </mxCell>
        <mxCell id="Si_MI3wo0mt31UTjFTAA-103" value="" style="rounded=1;whiteSpace=wrap;html=1;" parent="VenPGJtxrkUvdA_JquzI-1" vertex="1">
          <mxGeometry x="710" y="290" width="120" height="60" as="geometry" />
        </mxCell>
        <mxCell id="Si_MI3wo0mt31UTjFTAA-104" value="" style="curved=1;endArrow=classic;html=1;rounded=0;entryX=0.25;entryY=1;entryDx=0;entryDy=0;" parent="VenPGJtxrkUvdA_JquzI-1" target="Si_MI3wo0mt31UTjFTAA-103" edge="1">
          <mxGeometry width="50" height="50" relative="1" as="geometry">
            <mxPoint x="690" y="510" as="sourcePoint" />
            <mxPoint x="740" y="460" as="targetPoint" />
            <Array as="points">
              <mxPoint x="740" y="510" />
              <mxPoint x="690" y="460" />
            </Array>
          </mxGeometry>
        </mxCell>
        <mxCell id="Si_MI3wo0mt31UTjFTAA-105" value="deployment server" style="text;html=1;align=center;verticalAlign=middle;whiteSpace=wrap;rounded=0;" parent="VenPGJtxrkUvdA_JquzI-1" vertex="1">
          <mxGeometry x="730" y="300" width="60" height="30" as="geometry" />
        </mxCell>
        <mxCell id="Si_MI3wo0mt31UTjFTAA-108" value="" style="ellipse;whiteSpace=wrap;html=1;aspect=fixed;" parent="VenPGJtxrkUvdA_JquzI-1" vertex="1">
          <mxGeometry x="660" y="160" width="80" height="80" as="geometry" />
        </mxCell>
        <mxCell id="Si_MI3wo0mt31UTjFTAA-117" value="" style="edgeStyle=orthogonalEdgeStyle;rounded=0;orthogonalLoop=1;jettySize=auto;html=1;" parent="VenPGJtxrkUvdA_JquzI-1" source="Si_MI3wo0mt31UTjFTAA-109" edge="1">
          <mxGeometry relative="1" as="geometry">
            <mxPoint x="770" y="200" as="targetPoint" />
          </mxGeometry>
        </mxCell>
        <mxCell id="Si_MI3wo0mt31UTjFTAA-109" value="monitoring tools" style="text;html=1;align=center;verticalAlign=middle;whiteSpace=wrap;rounded=0;" parent="VenPGJtxrkUvdA_JquzI-1" vertex="1">
          <mxGeometry x="670" y="185" width="60" height="30" as="geometry" />
        </mxCell>
        <mxCell id="Si_MI3wo0mt31UTjFTAA-110" value="" style="curved=1;endArrow=classic;html=1;rounded=0;entryX=0.425;entryY=1.025;entryDx=0;entryDy=0;entryPerimeter=0;" parent="VenPGJtxrkUvdA_JquzI-1" target="Si_MI3wo0mt31UTjFTAA-108" edge="1">
          <mxGeometry width="50" height="50" relative="1" as="geometry">
            <mxPoint x="710" y="290" as="sourcePoint" />
            <mxPoint x="760" y="240" as="targetPoint" />
            <Array as="points">
              <mxPoint x="760" y="290" />
              <mxPoint x="710" y="240" />
            </Array>
          </mxGeometry>
        </mxCell>
        <mxCell id="Si_MI3wo0mt31UTjFTAA-111" value="containers" style="text;html=1;align=center;verticalAlign=middle;whiteSpace=wrap;rounded=0;rotation=270;" parent="VenPGJtxrkUvdA_JquzI-1" vertex="1">
          <mxGeometry x="700" y="420" width="60" height="30" as="geometry" />
        </mxCell>
        <mxCell id="Si_MI3wo0mt31UTjFTAA-115" value="" style="curved=1;endArrow=classic;html=1;rounded=0;entryX=1;entryY=0.75;entryDx=0;entryDy=0;" parent="VenPGJtxrkUvdA_JquzI-1" target="Si_MI3wo0mt31UTjFTAA-0" edge="1">
          <mxGeometry width="50" height="50" relative="1" as="geometry">
            <mxPoint x="690" y="160" as="sourcePoint" />
            <mxPoint x="740" y="110" as="targetPoint" />
            <Array as="points">
              <mxPoint x="740" y="160" />
              <mxPoint x="690" y="110" />
            </Array>
          </mxGeometry>
        </mxCell>
        <mxCell id="Si_MI3wo0mt31UTjFTAA-118" value="updates or changes" style="text;html=1;align=center;verticalAlign=middle;whiteSpace=wrap;rounded=0;" parent="VenPGJtxrkUvdA_JquzI-1" vertex="1">
          <mxGeometry x="505" y="90" width="60" height="30" as="geometry" />
        </mxCell>
        <mxCell id="Si_MI3wo0mt31UTjFTAA-119" value="Basic workflow for devops processes" style="text;html=1;align=center;verticalAlign=middle;whiteSpace=wrap;rounded=0;" parent="VenPGJtxrkUvdA_JquzI-1" vertex="1">
          <mxGeometry x="425" y="20" width="305" height="30" as="geometry" />
        </mxCell>
      </root>
    </mxGraphModel>
  </diagram>
</mxfile>
